<?xml version="1.0" encoding="UTF-8" standalone="no"?>
<!DOCTYPE svg PUBLIC "-//W3C//DTD SVG 1.1//EN"
 "http://www.w3.org/Graphics/SVG/1.1/DTD/svg11.dtd">
<!-- Generated by graphviz version 2.50.0 (20211209.1537)
 -->
<!-- Title: g Pages: 1 -->
<svg width="825pt" height="452pt"
 viewBox="0.00 0.00 824.83 452.00" xmlns="http://www.w3.org/2000/svg" xmlns:xlink="http://www.w3.org/1999/xlink">
<g id="graph0" class="graph" transform="scale(1 1) rotate(0) translate(4 448)">
<title>g</title>
<g id="node1" class="node">
<title></title>
<g id="a_node1"><a xlink:href=".">
<ellipse fill="white" stroke="#666666" cx="5.5" cy="-330" rx="5.5" ry="5.5"/>
</a>
</g>
</g>
<!-- META&#45;INF -->
<g id="node2" class="node">
<title>META&#45;INF</title>
<g id="a_node2"><a xlink:href="META-INF">
<ellipse fill="white" stroke="#666666" cx="219.95" cy="-426" rx="5.5" ry="5.5"/>
</a>
</g>
</g>
<!-- &#45;&gt;META&#45;INF -->
<g id="edge1" class="edge">
<title>&#45;&gt;META&#45;INF</title>
<path fill="none" stroke="#999999" d="M10.94,-332.01C36.75,-343.67 167.78,-402.88 207.51,-420.83"/>
<polygon fill="#999999" stroke="#999999" points="214.53,-424.01 206.31,-423.99 211.12,-422.46 207.7,-420.92 207.7,-420.92 207.7,-420.92 211.12,-422.46 209.09,-417.84 214.53,-424.01 214.53,-424.01"/>
<text text-anchor="middle" x="88.61" y="-378" font-family="Helvetica,sans-Serif" font-size="10.00">META&#45;INF</text>
</g>
<!-- mimetype -->
<g id="node4" class="node">
<title>mimetype</title>
<g id="a_node4"><a xlink:href="mimetype" xlink:title="application/epub+zip\l">
<polygon fill="white" stroke="#b3b3b3" points="273.91,-348 165.99,-348 165.99,-312 273.91,-312 273.91,-348"/>
<text text-anchor="start" x="174.22" y="-327" font-family="Helvetica,sans-Serif" font-size="10.00">application/epub+zip</text>
</a>
</g>
</g>
<!-- &#45;&gt;mimetype -->
<g id="edge3" class="edge">
<title>&#45;&gt;mimetype</title>
<path fill="none" stroke="#999999" d="M11.05,-329.79C20.89,-329.35 44.88,-328.34 65,-328 95.66,-327.48 129.75,-327.82 158.05,-328.37"/>
<polygon fill="#999999" stroke="#999999" points="165.87,-328.52 158.3,-331.75 162.12,-328.45 158.37,-328.37 158.37,-328.37 158.37,-328.37 162.12,-328.45 158.44,-325 165.87,-328.52 165.87,-328.52"/>
<text text-anchor="middle" x="88.61" y="-331" font-family="Helvetica,sans-Serif" font-size="10.00">mimetype</text>
</g>
<!-- EPUB -->
<g id="node5" class="node">
<title>EPUB</title>
<g id="a_node5"><a xlink:href="EPUB">
<ellipse fill="white" stroke="#666666" cx="219.95" cy="-234" rx="5.5" ry="5.5"/>
</a>
</g>
</g>
<!-- &#45;&gt;EPUB -->
<g id="edge4" class="edge">
<title>&#45;&gt;EPUB</title>
<path fill="none" stroke="#999999" d="M10.68,-327.51C20.16,-321.91 44.12,-308.01 65,-298 117.05,-273.03 181.44,-248.12 207.35,-238.33"/>
<polygon fill="#999999" stroke="#999999" points="214.59,-235.62 208.75,-241.41 211.08,-236.93 207.57,-238.25 207.57,-238.25 207.57,-238.25 211.08,-236.93 206.38,-235.09 214.59,-235.62 214.59,-235.62"/>
<text text-anchor="middle" x="88.61" y="-301" font-family="Helvetica,sans-Serif" font-size="10.00">EPUB</text>
</g>
<!-- META&#45;INF/container.xml -->
<g id="node3" class="node">
<title>META&#45;INF/container.xml</title>
<g id="a_node3"><a xlink:href="META-INF/container.xml" xlink:title="Main ebook entry point\l">
<polygon fill="white" stroke="#b3b3b3" points="558.4,-444 441.06,-444 441.06,-408 558.4,-408 558.4,-444"/>
<text text-anchor="start" x="449.14" y="-423" font-family="Helvetica,sans-Serif" font-size="10.00">Main ebook entry point</text>
</a>
</g>
</g>
<!-- META&#45;INF&#45;&gt;META&#45;INF/container.xml -->
<g id="edge2" class="edge">
<title>META&#45;INF&#45;&gt;META&#45;INF/container.xml</title>
<path fill="none" stroke="#999999" d="M225.77,-426C250.03,-426 360.44,-426 433.2,-426"/>
<polygon fill="#999999" stroke="#999999" points="440.99,-426 433.49,-429.38 437.24,-426 433.49,-426 433.49,-426 433.49,-426 437.24,-426 433.49,-422.63 440.99,-426 440.99,-426"/>
<text text-anchor="middle" x="357.41" y="-429" font-family="Helvetica,sans-Serif" font-size="10.00">container.xml</text>
</g>
<!-- EPUB/images -->
<g id="node6" class="node">
<title>EPUB/images</title>
<g id="a_node6"><a xlink:href="EPUB/images">
<ellipse fill="white" stroke="#666666" cx="499.73" cy="-330" rx="5.5" ry="5.5"/>
</a>
</g>
</g>
<!-- EPUB&#45;&gt;EPUB/images -->
<g id="edge5" class="edge">
<title>EPUB&#45;&gt;EPUB/images</title>
<path fill="none" stroke="#999999" d="M225.31,-235.51C255.91,-246.08 438.55,-309.2 486.96,-325.93"/>
<polygon fill="#999999" stroke="#999999" points="494.17,-328.42 485.98,-329.16 490.62,-327.2 487.08,-325.97 487.08,-325.97 487.08,-325.97 490.62,-327.2 488.18,-322.78 494.17,-328.42 494.17,-328.42"/>
<text text-anchor="middle" x="357.41" y="-294" font-family="Helvetica,sans-Serif" font-size="10.00">images</text>
</g>
<!-- EPUB/index.xhtml -->
<g id="node9" class="node">
<title>EPUB/index.xhtml</title>
<g id="a_node9"><a xlink:href="EPUB/index.xhtml" xlink:title="Book content\l">
<polygon fill="white" stroke="#b3b3b3" points="537.11,-252 462.36,-252 462.36,-216 537.11,-216 537.11,-252"/>
<text text-anchor="start" x="470.54" y="-231" font-family="Helvetica,sans-Serif" font-size="10.00">Book content</text>
</a>
</g>
</g>
<!-- EPUB&#45;&gt;EPUB/index.xhtml -->
<g id="edge8" class="edge">
<title>EPUB&#45;&gt;EPUB/index.xhtml</title>
<path fill="none" stroke="#999999" d="M225.84,-233.88C240.98,-233.5 288.39,-232.37 327.68,-232 354.11,-231.75 360.72,-231.76 387.14,-232 409.39,-232.2 434.13,-232.62 454.65,-233.03"/>
<polygon fill="#999999" stroke="#999999" points="462.3,-233.18 454.73,-236.41 458.55,-233.11 454.8,-233.03 454.8,-233.03 454.8,-233.03 458.55,-233.11 454.87,-229.66 462.3,-233.18 462.3,-233.18"/>
<text text-anchor="middle" x="357.41" y="-235" font-family="Helvetica,sans-Serif" font-size="10.00">index.xhtml</text>
</g>
<!-- EPUB/nav.xhtml -->
<g id="node10" class="node">
<title>EPUB/nav.xhtml</title>
<g id="a_node10"><a xlink:href="EPUB/nav.xhtml" xlink:title="Table of contents\l">
<polygon fill="white" stroke="#b3b3b3" points="545.94,-144 453.52,-144 453.52,-108 545.94,-108 545.94,-144"/>
<text text-anchor="start" x="461.37" y="-123" font-family="Helvetica,sans-Serif" font-size="10.00">Table of contents</text>
</a>
</g>
</g>
<!-- EPUB&#45;&gt;EPUB/nav.xhtml -->
<g id="edge9" class="edge">
<title>EPUB&#45;&gt;EPUB/nav.xhtml</title>
<path fill="none" stroke="#999999" d="M225.31,-232.3C250.03,-222.69 373.99,-174.5 446.23,-146.41"/>
<polygon fill="#999999" stroke="#999999" points="453.48,-143.59 447.72,-149.46 449.99,-144.95 446.49,-146.31 446.49,-146.31 446.49,-146.31 449.99,-144.95 445.27,-143.16 453.48,-143.59 453.48,-143.59"/>
<text text-anchor="middle" x="357.41" y="-193" font-family="Helvetica,sans-Serif" font-size="10.00">nav.xhtml</text>
</g>
<!-- EPUB/package.opf -->
<g id="node11" class="node">
<title>EPUB/package.opf</title>
<g id="a_node11"><a xlink:href="EPUB/package.opf" xlink:title="Ebook metadata\l">
<polygon fill="white" stroke="#b3b3b3" points="544.06,-36 455.4,-36 455.4,0 544.06,0 544.06,-36"/>
<text text-anchor="start" x="463.32" y="-15" font-family="Helvetica,sans-Serif" font-size="10.00">Ebook metadata</text>
</a>
</g>
</g>
<!-- EPUB&#45;&gt;EPUB/package.opf -->
<g id="edge10" class="edge">
<title>EPUB&#45;&gt;EPUB/package.opf</title>
<path fill="none" stroke="#999999" d="M224.53,-230.66C237.81,-218.32 285.68,-174.27 327.68,-141 374.37,-104 430.88,-64.3 465.82,-40.3"/>
<polygon fill="#999999" stroke="#999999" points="472.09,-36.01 467.81,-43.03 468.99,-38.13 465.9,-40.25 465.9,-40.25 465.9,-40.25 468.99,-38.13 463.99,-37.47 472.09,-36.01 472.09,-36.01"/>
<text text-anchor="middle" x="357.41" y="-144" font-family="Helvetica,sans-Serif" font-size="10.00">package.opf</text>
</g>
<!-- EPUB/images/cover.jpg -->
<g id="node7" class="node">
<title>EPUB/images/cover.jpg</title>
<g id="a_node7"><a xlink:href="EPUB/images/cover.jpg" xlink:title="Cover image\l">
<polygon fill="white" stroke="#b3b3b3" points="802.23,-402 729.85,-402 729.85,-366 802.23,-366 802.23,-402"/>
<text text-anchor="start" x="737.69" y="-381" font-family="Helvetica,sans-Serif" font-size="10.00">Cover image</text>
</a>
</g>
</g>
<!-- EPUB/images&#45;&gt;EPUB/images/cover.jpg -->
<g id="edge6" class="edge">
<title>EPUB/images&#45;&gt;EPUB/images/cover.jpg</title>
<path fill="none" stroke="#999999" d="M505.32,-330.94C530.7,-336.12 655.17,-361.55 722.16,-375.24"/>
<polygon fill="#999999" stroke="#999999" points="729.64,-376.77 721.62,-378.57 725.97,-376.02 722.29,-375.27 722.29,-375.27 722.29,-375.27 725.97,-376.02 722.97,-371.96 729.64,-376.77 729.64,-376.77"/>
<text text-anchor="middle" x="636.78" y="-364" font-family="Helvetica,sans-Serif" font-size="10.00">cover.jpg</text>
</g>
<!-- EPUB/images/image1.jpg -->
<g id="node8" class="node">
<title>EPUB/images/image1.jpg</title>
<g id="a_node8"><a xlink:href="EPUB/images/image1.jpg" xlink:title="(Additional images)\l">
<polygon fill="white" stroke="#b3b3b3" points="816.63,-294 715.44,-294 715.44,-258 816.63,-258 816.63,-294"/>
<text text-anchor="start" x="723.24" y="-273" font-family="Helvetica,sans-Serif" font-size="10.00">(Additional images)</text>
</a>
</g>
</g>
<!-- EPUB/images&#45;&gt;EPUB/images/image1.jpg -->
<g id="edge7" class="edge">
<title>EPUB/images&#45;&gt;EPUB/images/image1.jpg</title>
<path fill="none" stroke="#999999" d="M505.32,-329.06C529,-324.23 638.93,-301.76 707.96,-287.66"/>
<polygon fill="#999999" stroke="#999999" points="715.34,-286.15 708.67,-290.96 711.67,-286.9 707.99,-287.65 707.99,-287.65 707.99,-287.65 711.67,-286.9 707.32,-284.35 715.34,-286.15 715.34,-286.15"/>
<text text-anchor="middle" x="636.78" y="-310" font-family="Helvetica,sans-Serif" font-size="10.00">image1.jpg</text>
</g>
</g>
</svg>
