<?xml version="1.0" encoding="UTF-8" standalone="no"?>
<!DOCTYPE svg PUBLIC "-//W3C//DTD SVG 1.1//EN"
 "http://www.w3.org/Graphics/SVG/1.1/DTD/svg11.dtd">
<!-- Generated by graphviz version 2.50.0 (20211209.1537)
 -->
<!-- Title: g Pages: 1 -->
<svg width="672pt" height="368pt"
 viewBox="0.00 0.00 671.58 368.00" xmlns="http://www.w3.org/2000/svg" xmlns:xlink="http://www.w3.org/1999/xlink">
<g id="graph0" class="graph" transform="scale(1 1) rotate(0) translate(4 364)">
<title>g</title>
<g id="node1" class="node">
<title></title>
<g id="a_node1"><a xlink:href=".">
<ellipse fill="white" stroke="#666666" cx="5.5" cy="-240" rx="5.5" ry="5.5"/>
</a>
</g>
</g>
<!-- META&#45;INF -->
<g id="node2" class="node">
<title>META&#45;INF</title>
<g id="a_node2"><a xlink:href="META-INF">
<ellipse fill="white" stroke="#666666" cx="219.95" cy="-339" rx="5.5" ry="5.5"/>
</a>
</g>
</g>
<!-- &#45;&gt;META&#45;INF -->
<g id="edge1" class="edge">
<title>&#45;&gt;META&#45;INF</title>
<path fill="none" stroke="#999999" d="M10.94,-242.07C36.75,-254.1 167.78,-315.16 207.51,-333.67"/>
<polygon fill="#999999" stroke="#999999" points="214.53,-336.94 206.31,-336.83 211.13,-335.36 207.74,-333.78 207.74,-333.78 207.74,-333.78 211.13,-335.36 209.16,-330.72 214.53,-336.94 214.53,-336.94"/>
<text text-anchor="middle" x="88.61" y="-289" font-family="Helvetica,sans-Serif" font-size="10.00">META&#45;INF</text>
</g>
<!-- mimetype -->
<g id="node4" class="node">
<title>mimetype</title>
<g id="a_node4"><a xlink:href="mimetype" xlink:title="application/epub+zip\l">
<polygon fill="white" stroke="#b3b3b3" points="273.91,-258 165.99,-258 165.99,-222 273.91,-222 273.91,-258"/>
<text text-anchor="start" x="174.22" y="-237" font-family="Helvetica,sans-Serif" font-size="10.00">application/epub+zip</text>
</a>
</g>
</g>
<!-- &#45;&gt;mimetype -->
<g id="edge3" class="edge">
<title>&#45;&gt;mimetype</title>
<path fill="none" stroke="#999999" d="M11.05,-239.79C20.89,-239.35 44.88,-238.34 65,-238 95.66,-237.48 129.75,-237.82 158.05,-238.37"/>
<polygon fill="#999999" stroke="#999999" points="165.87,-238.52 158.3,-241.75 162.12,-238.45 158.37,-238.37 158.37,-238.37 158.37,-238.37 162.12,-238.45 158.44,-235 165.87,-238.52 165.87,-238.52"/>
<text text-anchor="middle" x="88.61" y="-241" font-family="Helvetica,sans-Serif" font-size="10.00">mimetype</text>
</g>
<!-- EPUB -->
<g id="node5" class="node">
<title>EPUB</title>
<g id="a_node5"><a xlink:href="EPUB">
<ellipse fill="white" stroke="#666666" cx="219.95" cy="-138" rx="5.5" ry="5.5"/>
</a>
</g>
</g>
<!-- &#45;&gt;EPUB -->
<g id="edge4" class="edge">
<title>&#45;&gt;EPUB</title>
<path fill="none" stroke="#999999" d="M10.68,-237.46C20.19,-231.74 44.18,-217.51 65,-207 117.15,-180.67 181.49,-153.49 207.36,-142.76"/>
<polygon fill="#999999" stroke="#999999" points="214.59,-139.78 208.95,-145.76 211.13,-141.21 207.66,-142.64 207.66,-142.64 207.66,-142.64 211.13,-141.21 206.37,-139.52 214.59,-139.78 214.59,-139.78"/>
<text text-anchor="middle" x="88.61" y="-210" font-family="Helvetica,sans-Serif" font-size="10.00">EPUB</text>
</g>
<!-- META&#45;INF/container.xml -->
<g id="node3" class="node">
<title>META&#45;INF/container.xml</title>
<g id="a_node3"><a xlink:href="META-INF/container.xml" xlink:title="&lt;?xml version=&quot;1.0&quot; encoding=&quot;UTF&#45;8&quot;?&gt;\l&lt;...\l">
<polygon fill="white" stroke="#b3b3b3" points="652.71,-360 452.01,-360 452.01,-324 652.71,-324 652.71,-360"/>
<text text-anchor="start" x="459.94" y="-345" font-family="Helvetica,sans-Serif" font-size="10.00">&lt;?xml version=&quot;1.0&quot; encoding=&quot;UTF&#45;8&quot;?&gt;</text>
<text text-anchor="start" x="459.94" y="-333" font-family="Helvetica,sans-Serif" font-size="10.00">&lt;...</text>
</a>
</g>
</g>
<!-- META&#45;INF&#45;&gt;META&#45;INF/container.xml -->
<g id="edge2" class="edge">
<title>META&#45;INF&#45;&gt;META&#45;INF/container.xml</title>
<path fill="none" stroke="#999999" d="M225.62,-339.04C249.34,-339.26 358.65,-340.25 444.19,-341.03"/>
<polygon fill="#999999" stroke="#999999" points="451.87,-341.1 444.34,-344.4 448.12,-341.06 444.37,-341.03 444.37,-341.03 444.37,-341.03 448.12,-341.06 444.4,-337.65 451.87,-341.1 451.87,-341.1"/>
<text text-anchor="middle" x="357.41" y="-343" font-family="Helvetica,sans-Serif" font-size="10.00">container.xml</text>
</g>
<!-- EPUB/index.xhtml -->
<g id="node6" class="node">
<title>EPUB/index.xhtml</title>
<g id="a_node6"><a xlink:href="EPUB/index.xhtml" xlink:title="...&lt;html \l xmlns=&quot;http://www.w3.org/1999/x...\l">
<polygon fill="white" stroke="#b3b3b3" points="639.75,-252 464.97,-252 464.97,-216 639.75,-216 639.75,-252"/>
<text text-anchor="start" x="472.92" y="-237" font-family="Helvetica,sans-Serif" font-size="10.00">...&lt;html </text>
<text text-anchor="start" x="472.92" y="-225" font-family="Helvetica,sans-Serif" font-size="10.00"> xmlns=&quot;http://www.w3.org/1999/x...</text>
</a>
</g>
</g>
<!-- EPUB&#45;&gt;EPUB/index.xhtml -->
<g id="edge5" class="edge">
<title>EPUB&#45;&gt;EPUB/index.xhtml</title>
<path fill="none" stroke="#999999" d="M225.62,-139.36C253.05,-147.33 394.94,-188.55 482.16,-213.89"/>
<polygon fill="#999999" stroke="#999999" points="489.39,-215.99 481.24,-217.14 485.79,-214.95 482.18,-213.9 482.18,-213.9 482.18,-213.9 485.79,-214.95 483.13,-210.66 489.39,-215.99 489.39,-215.99"/>
<text text-anchor="middle" x="357.41" y="-189" font-family="Helvetica,sans-Serif" font-size="10.00">index.xhtml</text>
</g>
<!-- EPUB/nav.xhtml -->
<g id="node7" class="node">
<title>EPUB/nav.xhtml</title>
<g id="a_node7"><a xlink:href="EPUB/nav.xhtml" xlink:title="...&lt;html\l xmlns=&quot;http://www.w3.org/1999/xh...\l">
<polygon fill="white" stroke="#b3b3b3" points="642.82,-144 461.91,-144 461.91,-108 642.82,-108 642.82,-144"/>
<text text-anchor="start" x="470.14" y="-129" font-family="Helvetica,sans-Serif" font-size="10.00">...&lt;html</text>
<text text-anchor="start" x="470.14" y="-117" font-family="Helvetica,sans-Serif" font-size="10.00"> xmlns=&quot;http://www.w3.org/1999/xh...</text>
</a>
</g>
</g>
<!-- EPUB&#45;&gt;EPUB/nav.xhtml -->
<g id="edge6" class="edge">
<title>EPUB&#45;&gt;EPUB/nav.xhtml</title>
<path fill="none" stroke="#999999" d="M225.84,-137.67C240.97,-136.68 288.37,-133.63 327.68,-132 369.16,-130.28 414.99,-128.95 454.31,-127.98"/>
<polygon fill="#999999" stroke="#999999" points="462.09,-127.79 454.67,-131.35 458.34,-127.89 454.59,-127.98 454.59,-127.98 454.59,-127.98 458.34,-127.89 454.51,-124.6 462.09,-127.79 462.09,-127.79"/>
<text text-anchor="middle" x="357.41" y="-135" font-family="Helvetica,sans-Serif" font-size="10.00">nav.xhtml</text>
</g>
<!-- EPUB/package.opf -->
<g id="node8" class="node">
<title>EPUB/package.opf</title>
<g id="a_node8"><a xlink:href="EPUB/package.opf" xlink:title="...&lt;package xmlns=&quot;http://www.idpf.org/2007...\l">
<polygon fill="white" stroke="#b3b3b3" points="663.8,-36 440.93,-36 440.93,0 663.8,0 663.8,-36"/>
<text text-anchor="start" x="449.14" y="-15" font-family="Helvetica,sans-Serif" font-size="10.00">...&lt;package xmlns=&quot;http://www.idpf.org/2007...</text>
</a>
</g>
</g>
<!-- EPUB&#45;&gt;EPUB/package.opf -->
<g id="edge7" class="edge">
<title>EPUB&#45;&gt;EPUB/package.opf</title>
<path fill="none" stroke="#999999" d="M225.42,-136.36C240.08,-130.99 288,-113.43 327.68,-99 384.23,-78.43 448.87,-55.03 494.07,-38.69"/>
<polygon fill="#999999" stroke="#999999" points="501.15,-36.13 495.25,-41.86 497.63,-37.41 494.1,-38.68 494.1,-38.68 494.1,-38.68 497.63,-37.41 492.95,-35.51 501.15,-36.13 501.15,-36.13"/>
<text text-anchor="middle" x="357.41" y="-102" font-family="Helvetica,sans-Serif" font-size="10.00">package.opf</text>
</g>
</g>
</svg>
