<?xml version="1.0" encoding="UTF-8" standalone="no"?>
<!DOCTYPE svg PUBLIC "-//W3C//DTD SVG 1.1//EN"
 "http://www.w3.org/Graphics/SVG/1.1/DTD/svg11.dtd">
<!-- Generated by graphviz version 2.50.0 (20211209.1537)
 -->
<!-- Title: g Pages: 1 -->
<svg width="828pt" height="452pt"
 viewBox="0.00 0.00 827.61 452.00" xmlns="http://www.w3.org/2000/svg" xmlns:xlink="http://www.w3.org/1999/xlink">
<g id="graph0" class="graph" transform="scale(1 1) rotate(0) translate(4 448)">
<title>g</title>
<g id="node1" class="node">
<title></title>
<g id="a_node1"><a xlink:href=".">
<ellipse fill="white" stroke="#666666" cx="5.5" cy="-330" rx="5.5" ry="5.5"/>
</a>
</g>
</g>
<!-- META&#45;INF/ -->
<g id="node2" class="node">
<title>META&#45;INF/</title>
<g id="a_node2"><a xlink:href="META-INF/">
<ellipse fill="white" stroke="#666666" cx="222.73" cy="-426" rx="5.5" ry="5.5"/>
</a>
</g>
</g>
<!-- &#45;&gt;META&#45;INF/ -->
<g id="edge1" class="edge">
<title>&#45;&gt;META&#45;INF/</title>
<path fill="none" stroke="#999999" d="M11,-332.01C37.2,-343.69 170.45,-403.13 210.39,-420.95"/>
<polygon fill="#999999" stroke="#999999" points="217.25,-424.01 209.03,-424.03 213.83,-422.48 210.41,-420.95 210.41,-420.95 210.41,-420.95 213.83,-422.48 211.78,-417.87 217.25,-424.01 217.25,-424.01"/>
<text text-anchor="middle" x="90" y="-381" font-family="Helvetica,sans-Serif" font-size="10.00">META&#45;INF/</text>
</g>
<!-- mimetype -->
<g id="node4" class="node">
<title>mimetype</title>
<g id="a_node4"><a xlink:href="mimetype" xlink:title="application/epub+zip\l">
<polygon fill="white" stroke="#b3b3b3" points="276.69,-348 168.76,-348 168.76,-312 276.69,-312 276.69,-348"/>
<text text-anchor="start" x="177" y="-327" font-family="Helvetica,sans-Serif" font-size="10.00">application/epub+zip</text>
</a>
</g>
</g>
<!-- &#45;&gt;mimetype -->
<g id="edge3" class="edge">
<title>&#45;&gt;mimetype</title>
<path fill="none" stroke="#999999" d="M11.05,-329.79C20.89,-329.35 44.88,-328.34 65,-328 96.72,-327.46 132.05,-327.82 161.13,-328.38"/>
<polygon fill="#999999" stroke="#999999" points="168.77,-328.54 161.2,-331.76 165.02,-328.46 161.27,-328.39 161.27,-328.39 161.27,-328.39 165.02,-328.46 161.34,-325.01 168.77,-328.54 168.77,-328.54"/>
<text text-anchor="middle" x="90" y="-331" font-family="Helvetica,sans-Serif" font-size="10.00">mimetype</text>
</g>
<!-- EPUB/ -->
<g id="node5" class="node">
<title>EPUB/</title>
<g id="a_node5"><a xlink:href="EPUB/">
<ellipse fill="white" stroke="#666666" cx="222.73" cy="-234" rx="5.5" ry="5.5"/>
</a>
</g>
</g>
<!-- &#45;&gt;EPUB/ -->
<g id="edge4" class="edge">
<title>&#45;&gt;EPUB/</title>
<path fill="none" stroke="#999999" d="M10.67,-327.5C20.15,-321.88 44.09,-307.95 65,-298 117.93,-272.81 183.52,-248.02 209.91,-238.3"/>
<polygon fill="#999999" stroke="#999999" points="217.28,-235.6 211.4,-241.35 213.76,-236.89 210.24,-238.18 210.24,-238.18 210.24,-238.18 213.76,-236.89 209.08,-235.01 217.28,-235.6 217.28,-235.6"/>
<text text-anchor="middle" x="90" y="-301" font-family="Helvetica,sans-Serif" font-size="10.00">EPUB/</text>
</g>
<!-- META&#45;INF/container.xml -->
<g id="node3" class="node">
<title>META&#45;INF/container.xml</title>
<g id="a_node3"><a xlink:href="META-INF/container.xml" xlink:title="Main ebook entry point\l">
<polygon fill="white" stroke="#b3b3b3" points="561.18,-444 443.84,-444 443.84,-408 561.18,-408 561.18,-444"/>
<text text-anchor="start" x="451.92" y="-423" font-family="Helvetica,sans-Serif" font-size="10.00">Main ebook entry point</text>
</a>
</g>
</g>
<!-- META&#45;INF/&#45;&gt;META&#45;INF/container.xml -->
<g id="edge2" class="edge">
<title>META&#45;INF/&#45;&gt;META&#45;INF/container.xml</title>
<path fill="none" stroke="#999999" d="M228.55,-426C252.81,-426 363.22,-426 435.98,-426"/>
<polygon fill="#999999" stroke="#999999" points="443.77,-426 436.27,-429.38 440.02,-426 436.27,-426 436.27,-426 436.27,-426 440.02,-426 436.27,-422.63 443.77,-426 443.77,-426"/>
<text text-anchor="middle" x="360.19" y="-429" font-family="Helvetica,sans-Serif" font-size="10.00">container.xml</text>
</g>
<!-- EPUB/images/ -->
<g id="node6" class="node">
<title>EPUB/images/</title>
<g id="a_node6"><a xlink:href="EPUB/images/">
<ellipse fill="white" stroke="#666666" cx="502.51" cy="-330" rx="5.5" ry="5.5"/>
</a>
</g>
</g>
<!-- EPUB/&#45;&gt;EPUB/images/ -->
<g id="edge5" class="edge">
<title>EPUB/&#45;&gt;EPUB/images/</title>
<path fill="none" stroke="#999999" d="M228.09,-235.51C258.69,-246.08 441.33,-309.2 489.74,-325.93"/>
<polygon fill="#999999" stroke="#999999" points="496.95,-328.42 488.75,-329.16 493.4,-327.2 489.86,-325.97 489.86,-325.97 489.86,-325.97 493.4,-327.2 490.96,-322.78 496.95,-328.42 496.95,-328.42"/>
<text text-anchor="middle" x="360.19" y="-294" font-family="Helvetica,sans-Serif" font-size="10.00">images/</text>
</g>
<!-- EPUB/index.xhtml -->
<g id="node9" class="node">
<title>EPUB/index.xhtml</title>
<g id="a_node9"><a xlink:href="EPUB/index.xhtml" xlink:title="Book content\l">
<polygon fill="white" stroke="#b3b3b3" points="539.88,-252 465.13,-252 465.13,-216 539.88,-216 539.88,-252"/>
<text text-anchor="start" x="473.32" y="-231" font-family="Helvetica,sans-Serif" font-size="10.00">Book content</text>
</a>
</g>
</g>
<!-- EPUB/&#45;&gt;EPUB/index.xhtml -->
<g id="edge8" class="edge">
<title>EPUB/&#45;&gt;EPUB/index.xhtml</title>
<path fill="none" stroke="#999999" d="M228.62,-233.88C243.76,-233.5 291.17,-232.37 330.46,-232 356.88,-231.75 363.49,-231.76 389.92,-232 412.17,-232.2 436.91,-232.62 457.43,-233.03"/>
<polygon fill="#999999" stroke="#999999" points="465.08,-233.18 457.51,-236.41 461.33,-233.11 457.58,-233.03 457.58,-233.03 457.58,-233.03 461.33,-233.11 457.65,-229.66 465.08,-233.18 465.08,-233.18"/>
<text text-anchor="middle" x="360.19" y="-235" font-family="Helvetica,sans-Serif" font-size="10.00">index.xhtml</text>
</g>
<!-- EPUB/nav.xhtml -->
<g id="node10" class="node">
<title>EPUB/nav.xhtml</title>
<g id="a_node10"><a xlink:href="EPUB/nav.xhtml" xlink:title="Table of contents\l">
<polygon fill="white" stroke="#b3b3b3" points="548.72,-144 456.29,-144 456.29,-108 548.72,-108 548.72,-144"/>
<text text-anchor="start" x="464.15" y="-123" font-family="Helvetica,sans-Serif" font-size="10.00">Table of contents</text>
</a>
</g>
</g>
<!-- EPUB/&#45;&gt;EPUB/nav.xhtml -->
<g id="edge9" class="edge">
<title>EPUB/&#45;&gt;EPUB/nav.xhtml</title>
<path fill="none" stroke="#999999" d="M228.09,-232.3C252.81,-222.69 376.77,-174.5 449.01,-146.41"/>
<polygon fill="#999999" stroke="#999999" points="456.26,-143.59 450.49,-149.46 452.77,-144.95 449.27,-146.31 449.27,-146.31 449.27,-146.31 452.77,-144.95 448.05,-143.16 456.26,-143.59 456.26,-143.59"/>
<text text-anchor="middle" x="360.19" y="-193" font-family="Helvetica,sans-Serif" font-size="10.00">nav.xhtml</text>
</g>
<!-- EPUB/package.opf -->
<g id="node11" class="node">
<title>EPUB/package.opf</title>
<g id="a_node11"><a xlink:href="EPUB/package.opf" xlink:title="Ebook metadata\l">
<polygon fill="white" stroke="#b3b3b3" points="546.84,-36 458.18,-36 458.18,0 546.84,0 546.84,-36"/>
<text text-anchor="start" x="466.1" y="-15" font-family="Helvetica,sans-Serif" font-size="10.00">Ebook metadata</text>
</a>
</g>
</g>
<!-- EPUB/&#45;&gt;EPUB/package.opf -->
<g id="edge10" class="edge">
<title>EPUB/&#45;&gt;EPUB/package.opf</title>
<path fill="none" stroke="#999999" d="M227.31,-230.66C240.59,-218.32 288.46,-174.27 330.46,-141 377.14,-104 433.66,-64.3 468.6,-40.3"/>
<polygon fill="#999999" stroke="#999999" points="474.87,-36.01 470.59,-43.03 471.77,-38.13 468.68,-40.25 468.68,-40.25 468.68,-40.25 471.77,-38.13 466.77,-37.47 474.87,-36.01 474.87,-36.01"/>
<text text-anchor="middle" x="360.19" y="-144" font-family="Helvetica,sans-Serif" font-size="10.00">package.opf</text>
</g>
<!-- EPUB/images/cover.jpg -->
<g id="node7" class="node">
<title>EPUB/images/cover.jpg</title>
<g id="a_node7"><a xlink:href="EPUB/images/cover.jpg" xlink:title="Cover image\l">
<polygon fill="white" stroke="#b3b3b3" points="805,-402 732.62,-402 732.62,-366 805,-366 805,-402"/>
<text text-anchor="start" x="740.47" y="-381" font-family="Helvetica,sans-Serif" font-size="10.00">Cover image</text>
</a>
</g>
</g>
<!-- EPUB/images/&#45;&gt;EPUB/images/cover.jpg -->
<g id="edge6" class="edge">
<title>EPUB/images/&#45;&gt;EPUB/images/cover.jpg</title>
<path fill="none" stroke="#999999" d="M508.1,-330.94C533.48,-336.12 657.95,-361.55 724.94,-375.24"/>
<polygon fill="#999999" stroke="#999999" points="732.42,-376.77 724.4,-378.57 728.75,-376.02 725.07,-375.27 725.07,-375.27 725.07,-375.27 728.75,-376.02 725.75,-371.96 732.42,-376.77 732.42,-376.77"/>
<text text-anchor="middle" x="639.56" y="-364" font-family="Helvetica,sans-Serif" font-size="10.00">cover.jpg</text>
</g>
<!-- EPUB/images/image1.jpg -->
<g id="node8" class="node">
<title>EPUB/images/image1.jpg</title>
<g id="a_node8"><a xlink:href="EPUB/images/image1.jpg" xlink:title="(Additional images)\l">
<polygon fill="white" stroke="#b3b3b3" points="819.41,-294 718.22,-294 718.22,-258 819.41,-258 819.41,-294"/>
<text text-anchor="start" x="726.02" y="-273" font-family="Helvetica,sans-Serif" font-size="10.00">(Additional images)</text>
</a>
</g>
</g>
<!-- EPUB/images/&#45;&gt;EPUB/images/image1.jpg -->
<g id="edge7" class="edge">
<title>EPUB/images/&#45;&gt;EPUB/images/image1.jpg</title>
<path fill="none" stroke="#999999" d="M508.1,-329.06C531.77,-324.23 641.71,-301.76 710.74,-287.66"/>
<polygon fill="#999999" stroke="#999999" points="718.12,-286.15 711.45,-290.96 714.45,-286.9 710.77,-287.65 710.77,-287.65 710.77,-287.65 714.45,-286.9 710.1,-284.35 718.12,-286.15 718.12,-286.15"/>
<text text-anchor="middle" x="639.56" y="-310" font-family="Helvetica,sans-Serif" font-size="10.00">image1.jpg</text>
</g>
</g>
</svg>
